<svg width="24" height="24" viewBox="0 0 24 24" fill="none" xmlns="http://www.w3.org/2000/svg">
<path d="M12.0068 4.5C16.1341 4.50012 19.5122 7.93178 19.5 12.2012V12.2031C19.4999 15.569 17.3998 18.4148 14.4824 19.4678C14.4835 19.3134 14.4858 19.078 14.4883 18.7783C14.4916 18.3855 14.4951 17.8879 14.4951 17.3359C14.4951 16.8893 14.4203 16.5049 14.292 16.1855C14.9876 16.0384 15.6933 15.7771 16.2773 15.2764C17.1067 14.5653 17.6103 13.4488 17.6104 11.7686C17.6104 10.8606 17.3303 10.0854 16.8447 9.45801C16.9588 9.01491 17.0597 8.20542 16.6748 7.21387L16.5889 6.99219L16.3613 6.91895L16.2324 7.32324C16.3622 6.9193 16.3608 6.91909 16.3604 6.91895H16.3594L16.3574 6.91797C16.3562 6.91758 16.3548 6.91739 16.3535 6.91699C16.3506 6.9161 16.347 6.915 16.3438 6.91406C16.3373 6.91221 16.3301 6.91017 16.3223 6.9082C16.3062 6.90419 16.2874 6.89943 16.2656 6.89551C16.2221 6.88766 16.1674 6.88083 16.1016 6.87793C15.9692 6.87213 15.7937 6.88301 15.5742 6.93066C15.1719 7.01803 14.625 7.2306 13.917 7.69629C13.3018 7.54554 12.6492 7.46584 12.0068 7.46582H12.0059C11.3622 7.46657 10.7209 7.54333 10.0957 7.69629C9.38813 7.23086 8.84168 7.01807 8.43945 6.93066C8.21995 6.88299 8.04451 6.87213 7.91211 6.87793C7.84626 6.88082 7.79157 6.88767 7.74805 6.89551C7.72642 6.89941 7.7074 6.90421 7.69141 6.9082C7.68338 6.91021 7.67554 6.91218 7.66895 6.91406C7.66582 6.91496 7.66296 6.91614 7.66016 6.91699C7.65869 6.91744 7.65665 6.91754 7.65527 6.91797L7.65332 6.91895H7.65234C7.65235 6.92052 7.6603 6.94638 7.80469 7.39551L7.65137 6.91895L7.4248 6.99219L7.33887 7.21387C6.95317 8.20738 7.05363 9.0184 7.16797 9.46094C6.69469 10.0833 6.40332 10.8565 6.40332 11.7686C6.4034 13.4485 6.90659 14.5675 7.7334 15.2803C8.31678 15.7831 9.021 16.0456 9.71484 16.1904C9.67075 16.3022 9.63428 16.4219 9.60449 16.5488C9.43195 16.6045 9.22616 16.6472 9.01953 16.6279C8.7461 16.6024 8.42269 16.4712 8.14551 15.9873C8.14416 15.9849 8.14231 15.9824 8.14062 15.9795C8.13516 15.9699 8.12821 15.9573 8.11914 15.9424C8.10094 15.9125 8.07504 15.8723 8.04199 15.8252C7.97638 15.7317 7.87882 15.6071 7.74902 15.4795C7.49307 15.2278 7.07874 14.9337 6.5127 14.8955L6.49512 14.8945H6.45898C6.44944 14.8947 6.43672 14.8948 6.42188 14.8955C6.39246 14.897 6.35123 14.9003 6.30469 14.9062C6.2309 14.9156 6.06734 14.9402 5.9209 15.0283C5.84166 15.076 5.72673 15.1672 5.66113 15.3242C5.58992 15.495 5.60964 15.6649 5.66406 15.7969C5.75364 16.0137 5.95354 16.1789 6.1416 16.3086L6.17773 16.333L6.21582 16.3506L6.21484 16.3496L6.21289 16.3486C6.21169 16.3481 6.20994 16.3481 6.20898 16.3477L6.20801 16.3467C6.2127 16.3494 6.22104 16.3545 6.23242 16.3623C6.26265 16.3829 6.31524 16.4227 6.37988 16.4883C6.50781 16.6181 6.69128 16.8576 6.8457 17.2676C6.84726 17.272 6.84864 17.277 6.85059 17.2822C6.85753 17.3009 6.8675 17.325 6.87988 17.3535C6.90462 17.4104 6.94142 17.4854 6.99316 17.5713C7.09657 17.7428 7.26256 17.9615 7.51758 18.1592C7.95543 18.4985 8.59961 18.7336 9.50879 18.6514C9.50992 18.7823 9.51035 18.9063 9.51172 19.0195C9.51397 19.2061 9.51542 19.3597 9.5166 19.4678C6.59968 18.4149 4.50014 15.5687 4.5 12.2031C4.5 7.93165 7.86686 4.5 12.0068 4.5Z" stroke="#FCF7F8"/>
</svg>
