<svg width="24" height="24" viewBox="0 0 24 24" fill="none" xmlns="http://www.w3.org/2000/svg">
<path d="M11.3525 3.9668C11.9315 3.88767 12.5104 3.87887 13.0889 3.93945L13.0879 3.94043C13.6636 3.9945 14.2085 4.11035 14.7217 4.29102H14.7207C15.2369 4.46251 15.7029 4.68261 16.1172 4.95215C16.5312 5.22151 16.8872 5.53184 17.1846 5.88281H17.1836C17.4851 6.22519 17.7081 6.59146 17.8496 6.98145C18.0782 7.61143 18.1769 8.19558 18.1406 8.73242V8.7334C18.1023 9.25809 17.9746 9.73548 17.7588 10.165C17.5504 10.59 17.277 10.9694 16.9385 11.3008C16.6043 11.6279 16.2523 11.9176 15.8828 12.1699L15.8818 12.1709C15.5177 12.4136 15.1601 12.6175 14.8096 12.7822C14.4636 12.9448 14.1708 13.0768 13.9316 13.1787L13.9297 13.1797L13.6846 13.2803C13.3005 13.435 12.8565 13.615 12.3535 13.8203L12.3516 13.8213C11.8528 14.0178 11.3263 14.2282 10.7725 14.4521H10.7715C10.2148 14.6699 9.71731 14.8622 9.2793 15.0293L9.27832 15.0303L9.24316 14.9365L9.27734 15.0303C8.84387 15.1885 8.48657 15.3185 8.20605 15.4209C7.97344 15.5058 7.74288 15.5895 7.51465 15.6729C7.87435 16.0516 8.29255 16.3649 8.77051 16.6123L9.17383 16.8008C9.58285 16.9754 10.0073 17.1078 10.4463 17.1992H10.4453C11.0345 17.3125 11.6279 17.3493 12.2256 17.3096C12.8232 17.2699 13.3849 17.154 13.9111 16.9619C14.3183 16.8133 14.7086 16.6172 15.082 16.374H15.083C15.4623 16.1288 15.8173 15.8351 16.1484 15.4932C16.4763 15.1457 16.7713 14.7452 17.0342 14.292C17.2944 13.8331 17.5154 13.3202 17.6953 12.7529L17.7285 12.6475L17.8301 12.6914L20.04 13.6455L20.124 13.6816L20.0947 13.7686C19.8444 14.5256 19.5186 15.2163 19.1162 15.8398H19.1152C18.7179 16.4529 18.274 16.9999 17.7832 17.4795C17.293 17.9585 16.7705 18.3698 16.2148 18.7119C15.6607 19.0531 15.1026 19.3262 14.541 19.5312C13.5892 19.8787 12.6922 20.0673 11.8516 20.0947C11.0158 20.1219 10.2435 20.0481 9.53516 19.873C8.82946 19.6986 8.19186 19.4542 7.62305 19.1396C7.05896 18.8277 6.56985 18.5052 6.15625 18.1719H6.15527C5.7422 17.8344 5.40558 17.5211 5.14648 17.2324C4.93084 16.9921 4.77438 16.805 4.67969 16.6748C4.3712 16.7811 4.15782 16.8554 4.04004 16.8984L4.03613 16.9004C3.90757 16.9402 3.8159 16.9658 3.76855 16.9746L3.68359 16.9902L3.65527 16.9082L2.90527 14.6611L2.87402 14.5684L2.96582 14.5352C2.97189 14.5329 2.98525 14.5283 3.00391 14.5215C3.03543 14.51 3.07978 14.4977 3.13379 14.4854C3.19271 14.4643 3.26856 14.4391 3.36133 14.4121C3.4437 14.382 3.54225 14.3457 3.65723 14.3037C3.53483 13.7337 3.4805 13.1455 3.49707 12.5391C3.5145 11.9018 3.60868 11.266 3.78027 10.6318L3.78125 10.6309C3.95936 9.99425 4.21109 9.37099 4.53711 8.76172C4.8635 8.15179 5.26151 7.57812 5.73047 7.04102C6.20014 6.50316 6.74281 6.01562 7.35742 5.5791L7.59082 5.41602C8.14292 5.04382 8.74864 4.72835 9.40723 4.46875L9.40918 4.46777C9.45064 4.45264 9.49272 4.43701 9.53418 4.42188C9.57548 4.4068 9.6169 4.39203 9.6582 4.37695C10.2071 4.17659 10.7719 4.04042 11.3525 3.96777V3.9668ZM12.2119 6.53027C11.6016 6.52591 11.0025 6.63096 10.4141 6.8457C9.78108 7.07676 9.1898 7.41637 8.6416 7.86621L8.64258 7.86719C8.16841 8.25881 7.75755 8.70562 7.41113 9.20898L7.2666 9.42871C6.89597 10.013 6.62715 10.6533 6.45996 11.3496C6.30652 11.9965 6.28015 12.6608 6.37988 13.3438C6.7068 13.2302 7.03334 13.1157 7.3584 12.9971L8.18164 12.6963L9.5127 12.1885C10.0368 11.9827 10.5322 11.7874 10.999 11.6025C11.4628 11.4115 11.8809 11.234 12.2529 11.0693L12.3926 11.0068C13.0181 10.728 13.532 10.4649 13.9346 10.2178C14.337 9.97071 14.6392 9.72974 14.8447 9.49512C15.047 9.25514 15.1597 9.01712 15.1924 8.78125L15.1934 8.78027C15.2305 8.53103 15.1996 8.26635 15.0977 7.98535C14.937 7.54274 14.5925 7.19399 14.0479 6.94434V6.94531C13.438 6.67051 12.8267 6.53243 12.2129 6.53027H12.2119Z" fill="#59FFA0" stroke="#59FFA0" stroke-width="0.2"/>
</svg>
