<svg width="24" height="24" viewBox="0 0 24 24" fill="none" xmlns="http://www.w3.org/2000/svg">
<mask id="path-1-inside-1_314_62" fill="white">
<path d="M12 4C16.4183 4 20 7.58172 20 12C20 16.4183 16.4183 20 12 20C7.58172 20 4 16.4183 4 12C4 7.58172 7.58172 4 12 4ZM8.11523 14.4736H9.32617V12.5752C9.32617 12.1328 9.41667 11.8491 9.55273 11.6826C9.68512 11.5162 9.87082 11.4512 10.0713 11.4512C10.2489 11.4512 10.389 11.5083 10.4873 11.6104C10.5855 11.7162 10.6425 11.8788 10.6426 12.1055V14.4697H11.8525V11.8672C11.8525 11.4248 11.7234 11.066 11.4814 10.8164C11.2431 10.5668 10.8993 10.4336 10.4795 10.4336C9.95761 10.4336 9.55692 10.6459 9.32617 11.043V9.07227H8.11523V14.4736ZM12.5215 14.4736H13.7324V12.5752C13.7324 12.1329 13.823 11.8491 13.959 11.6826C14.0914 11.5162 14.2771 11.4512 14.4775 11.4512C14.6553 11.4512 14.7952 11.5083 14.8936 11.6104C14.9918 11.7162 15.0487 11.8788 15.0488 12.1055V14.4697H16.2588V11.8672C16.2587 11.4251 16.1305 11.0661 15.8926 10.8203C15.6505 10.5707 15.3056 10.4336 14.8857 10.4336C14.3639 10.4337 13.9631 10.6459 13.7324 11.043V9.07227H12.5215V14.4736Z"/>
</mask>
<path d="M12 4L12 3L12 4ZM20 12L21 12L20 12ZM12 20V21V20ZM4 12H3H4ZM8.11523 14.4736H7.11523V15.4736H8.11523V14.4736ZM9.32617 14.4736V15.4736H10.3262V14.4736H9.32617ZM9.55273 11.6826L10.327 12.3156L10.3353 12.3051L9.55273 11.6826ZM10.0713 11.4512L10.0716 10.4512H10.0713V11.4512ZM10.4873 11.6104L11.2202 10.93L11.214 10.9233L11.2076 10.9167L10.4873 11.6104ZM10.6426 12.1055L11.6426 12.1055L11.6426 12.1051L10.6426 12.1055ZM10.6426 14.4697H9.64258V15.4697H10.6426V14.4697ZM11.8525 14.4697V15.4697H12.8525V14.4697H11.8525ZM11.8525 11.8672L12.8525 11.8672L12.8525 11.867L11.8525 11.8672ZM11.4814 10.8164L10.7581 11.507L10.7635 11.5126L11.4814 10.8164ZM10.4795 10.4336L10.4795 9.43359L10.4795 9.43359L10.4795 10.4336ZM9.32617 11.043H8.32617V14.7536L10.1908 11.5455L9.32617 11.043ZM9.32617 9.07227H10.3262V8.07227H9.32617V9.07227ZM8.11523 9.07227V8.07227H7.11523V9.07227H8.11523ZM12.5215 14.4736H11.5215V15.4736H12.5215V14.4736ZM13.7324 14.4736V15.4736H14.7324V14.4736H13.7324ZM13.959 11.6826L14.7334 12.3154L14.7416 12.3051L13.959 11.6826ZM14.4775 11.4512L14.4776 10.4512H14.4775V11.4512ZM14.8936 11.6104L15.6263 10.9299L15.6201 10.9232L15.6138 10.9166L14.8936 11.6104ZM15.0488 12.1055L16.0488 12.1055L16.0488 12.1051L15.0488 12.1055ZM15.0488 14.4697H14.0488V15.4697H15.0488V14.4697ZM16.2588 14.4697V15.4697H17.2588V14.4697H16.2588ZM16.2588 11.8672L17.2588 11.8672L17.2588 11.867L16.2588 11.8672ZM15.8926 10.8203L16.611 10.1247L16.6105 10.1242L15.8926 10.8203ZM14.8857 10.4336L14.8857 9.43359L14.8856 9.43359L14.8857 10.4336ZM13.7324 11.043H12.7324V14.7543L14.597 11.5454L13.7324 11.043ZM13.7324 9.07227H14.7324V8.07227H13.7324V9.07227ZM12.5215 9.07227V8.07227H11.5215V9.07227H12.5215ZM12 4V5C15.866 5 19 8.13401 19 12L20 12L21 12C21 7.02944 16.9706 3 12 3V4ZM20 12H19C19 15.866 15.866 19 12 19V20V21C16.9706 21 21 16.9706 21 12H20ZM12 20L12 19C8.13401 19 5 15.866 5 12H4H3C3 16.9706 7.02944 21 12 21L12 20ZM4 12L5 12C5 8.13401 8.13401 5 12 5L12 4L12 3C7.02944 3 3 7.02944 3 12L4 12ZM8.11523 14.4736V15.4736H9.32617V14.4736V13.4736H8.11523V14.4736ZM9.32617 14.4736H10.3262V12.5752H9.32617H8.32617V14.4736H9.32617ZM9.32617 12.5752H10.3262C10.3262 12.419 10.3425 12.3283 10.354 12.2857C10.3653 12.2437 10.3667 12.2669 10.327 12.3155L9.55273 11.6826L8.77849 11.0497C8.4333 11.472 8.32617 12.0269 8.32617 12.5752H9.32617ZM9.55273 11.6826L10.3353 12.3051C10.2946 12.3564 10.2371 12.3998 10.1745 12.4261C10.1172 12.4502 10.0776 12.4512 10.0713 12.4512V11.4512V10.4512C9.64547 10.4512 9.13671 10.5993 8.77013 11.0601L9.55273 11.6826ZM10.0713 11.4512L10.071 12.4512C10.0528 12.4512 10.0073 12.4481 9.94666 12.4245C9.88391 12.4001 9.8206 12.3597 9.76698 12.304L10.4873 11.6104L11.2076 10.9167C10.8905 10.5874 10.4737 10.4513 10.0716 10.4512L10.0713 11.4512ZM10.4873 11.6104L9.75438 12.2907C9.6253 12.1516 9.64255 12.0354 9.64258 12.1058L10.6426 12.1055L11.6426 12.1051C11.6424 11.7222 11.5458 11.2808 11.2202 10.93L10.4873 11.6104ZM10.6426 12.1055H9.64258V14.4697H10.6426H11.6426V12.1055H10.6426ZM10.6426 14.4697V15.4697H11.8525V14.4697V13.4697H10.6426V14.4697ZM11.8525 14.4697H12.8525V11.8672H11.8525H10.8525V14.4697H11.8525ZM11.8525 11.8672L12.8525 11.867C12.8524 11.2318 12.664 10.5995 12.1993 10.1203L11.4814 10.8164L10.7635 11.5126C10.7828 11.5325 10.8525 11.6178 10.8525 11.8674L11.8525 11.8672ZM11.4814 10.8164L12.2047 10.1259C11.7413 9.64041 11.1148 9.43359 10.4795 9.43359V10.4336V11.4336C10.6838 11.4336 10.745 11.4932 10.7581 11.5069L11.4814 10.8164ZM10.4795 10.4336L10.4795 9.43359C9.65808 9.4336 8.89812 9.78938 8.46159 10.5405L9.32617 11.043L10.1908 11.5455C10.2157 11.5025 10.2571 11.4336 10.4795 11.4336L10.4795 10.4336ZM9.32617 11.043H10.3262V9.07227H9.32617H8.32617V11.043H9.32617ZM9.32617 9.07227V8.07227H8.11523V9.07227V10.0723H9.32617V9.07227ZM8.11523 9.07227H7.11523V14.4736H8.11523H9.11523V9.07227H8.11523ZM12.5215 14.4736V15.4736H13.7324V14.4736V13.4736H12.5215V14.4736ZM13.7324 14.4736H14.7324V12.5752H13.7324H12.7324V14.4736H13.7324ZM13.7324 12.5752H14.7324C14.7324 12.4191 14.7487 12.3284 14.7602 12.2857C14.7716 12.2437 14.7731 12.2668 14.7334 12.3153L13.959 11.6826L13.1846 11.0499C12.8397 11.4721 12.7324 12.0268 12.7324 12.5752H13.7324ZM13.959 11.6826L14.7416 12.3051C14.7008 12.3564 14.6434 12.3998 14.5807 12.4261C14.5235 12.4502 14.4838 12.4512 14.4775 12.4512V11.4512V10.4512C14.0517 10.4512 13.543 10.5993 13.1764 11.0601L13.959 11.6826ZM14.4775 11.4512L14.4775 12.4512C14.4592 12.4512 14.4136 12.4481 14.3528 12.4245C14.2899 12.4 14.2267 12.3595 14.1733 12.3041L14.8936 11.6104L15.6138 10.9166C15.2968 10.5875 14.8802 10.4512 14.4776 10.4512L14.4775 11.4512ZM14.8936 11.6104L14.1608 12.2908C14.0315 12.1516 14.0488 12.0352 14.0488 12.1058L15.0488 12.1055L16.0488 12.1051C16.0487 11.7223 15.9521 11.2808 15.6263 10.9299L14.8936 11.6104ZM15.0488 12.1055H14.0488V14.4697H15.0488H16.0488V12.1055H15.0488ZM15.0488 14.4697V15.4697H16.2588V14.4697V13.4697H15.0488V14.4697ZM16.2588 14.4697H17.2588V11.8672H16.2588H15.2588V14.4697H16.2588ZM16.2588 11.8672L17.2588 11.867C17.2587 11.2362 17.0734 10.6023 16.611 10.1247L15.8926 10.8203L15.1741 11.5159C15.1876 11.5299 15.2587 11.614 15.2588 11.8674L16.2588 11.8672ZM15.8926 10.8203L16.6105 10.1242C16.1502 9.64954 15.5301 9.43359 14.8857 9.43359V10.4336V11.4336C15.0811 11.4336 15.1508 11.4918 15.1747 11.5165L15.8926 10.8203ZM14.8857 10.4336L14.8856 9.43359C14.0645 9.4337 13.3044 9.78924 12.8678 10.5405L13.7324 11.043L14.597 11.5454C14.6219 11.5026 14.6633 11.4336 14.8859 11.4336L14.8857 10.4336ZM13.7324 11.043H14.7324V9.07227H13.7324H12.7324V11.043H13.7324ZM13.7324 9.07227V8.07227H12.5215V9.07227V10.0723H13.7324V9.07227ZM12.5215 9.07227H11.5215V14.4736H12.5215H13.5215V9.07227H12.5215Z" fill="#080708" mask="url(#path-1-inside-1_314_62)"/>
</svg>
