<svg width="24" height="24" viewBox="0 0 24 24" fill="none" xmlns="http://www.w3.org/2000/svg">
<mask id="path-1-inside-1_315_67" fill="white">
<path d="M12 4C16.4183 4 20 7.58173 20 12C20 16.4183 16.4183 20 12 20C7.58173 20 4 16.4183 4 12C4 7.58173 7.58173 4 12 4ZM15.8154 9.20215C15.8847 8.41624 15.0518 8.74023 15.0518 8.74023C15.0236 8.75179 13.2445 9.48154 12.7168 9.71094C11.3295 10.289 7.3291 11.9307 7.3291 11.9307C6.3816 12.3006 6.93652 12.6475 6.93652 12.6475C6.94965 12.652 7.75149 12.9265 8.43945 13.1328C9.133 13.3408 9.50293 13.1094 9.50293 13.1094C9.52511 13.0948 11.1325 12.0382 12.7627 10.9131C13.9185 10.1272 13.6417 10.7742 13.3643 11.0518C12.7631 11.6529 11.7689 12.6013 10.9365 13.3643C10.5669 13.6877 10.7513 13.9647 10.9131 14.1035C11.5142 14.6122 13.1565 15.6533 13.249 15.7227C13.3656 15.8157 14.0116 16.2308 14.4043 16.1387C14.7923 16.0474 14.8425 15.5279 14.8438 15.5146C14.8438 15.5146 15.1444 13.6188 15.4219 11.8848C15.6068 10.6593 15.7923 9.52586 15.8154 9.20215Z"/>
</mask>
<path d="M12 4L12 3L12 3L12 4ZM20 12L21 12L21 12L20 12ZM12 20L12 21H12V20ZM4 12L3 12V12H4ZM15.8154 9.20215L14.8193 9.11438L14.8186 9.12261L14.818 9.13086L15.8154 9.20215ZM15.0518 8.74023L14.6892 7.80826L14.6807 7.81159L14.6722 7.81508L15.0518 8.74023ZM12.7168 9.71094L13.1014 10.634L13.1085 10.6311L13.1155 10.628L12.7168 9.71094ZM7.3291 11.9307L7.69277 12.8622L7.70079 12.8591L7.70875 12.8558L7.3291 11.9307ZM6.93652 12.6475L6.40645 13.4954L6.50375 13.5562L6.61231 13.5934L6.93652 12.6475ZM8.43945 13.1328L8.15215 14.0907L8.15215 14.0907L8.43945 13.1328ZM9.50293 13.1094L10.0334 13.9571L10.0428 13.9512L10.0522 13.945L9.50293 13.1094ZM12.7627 10.9131L12.2004 10.0861L12.1947 10.0901L12.7627 10.9131ZM13.3643 11.0518L14.0714 11.7589L14.0716 11.7586L13.3643 11.0518ZM10.9365 13.3643L11.5951 14.1168L11.6037 14.1092L11.6122 14.1014L10.9365 13.3643ZM10.9131 14.1035L10.2619 14.8624L10.2671 14.8669L10.9131 14.1035ZM13.249 15.7227L13.873 14.9412L13.861 14.9317L13.8488 14.9225L13.249 15.7227ZM14.4043 16.1387L14.6327 17.1122L14.6333 17.1121L14.4043 16.1387ZM14.8438 15.5146L13.8561 15.358L13.8509 15.3906L13.8479 15.4234L14.8438 15.5146ZM15.4219 11.8848L16.4094 12.0428L16.4107 12.034L15.4219 11.8848ZM12 4V5C15.866 5 19 8.13401 19 12L20 12L21 12C21 7.02944 16.9706 3 12 3V4ZM20 12H19C19 15.866 15.866 19 12 19V20V21C16.9706 21 21 16.9706 21 12H20ZM12 20L12 19C8.13401 19 5 15.866 5 12H4H3C3 16.9706 7.02944 21 12 21L12 20ZM4 12L5 12C5 8.13401 8.13401 5 12 5L12 4L12 3C7.02944 3 3 7.02944 3 12L4 12ZM15.8154 9.20215L16.8116 9.28992C16.8427 8.9361 16.789 8.50463 16.4862 8.14953C16.186 7.79749 15.795 7.70173 15.5456 7.68019C15.2975 7.65875 15.0797 7.69842 14.9521 7.72841C14.8822 7.74482 14.8233 7.76228 14.7796 7.7764C14.7575 7.78354 14.7387 7.79005 14.7236 7.79546C14.716 7.79817 14.7094 7.80063 14.7036 7.80277C14.7008 7.80385 14.6981 7.80485 14.6957 7.80576C14.6945 7.80622 14.6934 7.80666 14.6923 7.80707C14.6918 7.80728 14.6912 7.80749 14.6907 7.80768C14.6905 7.80778 14.6901 7.80793 14.69 7.80798C14.6896 7.80812 14.6892 7.80826 15.0518 8.74023C15.4143 9.67221 15.4139 9.67235 15.4136 9.67249C15.4135 9.67253 15.4131 9.67267 15.4129 9.67276C15.4124 9.67293 15.412 9.67311 15.4115 9.67328C15.4106 9.67362 15.4098 9.67394 15.409 9.67424C15.4074 9.67485 15.406 9.6754 15.4047 9.67588C15.4021 9.67685 15.4001 9.67759 15.3986 9.67812C15.3957 9.67917 15.3946 9.67948 15.3952 9.6793C15.3968 9.67877 15.4024 9.67706 15.4096 9.67538C15.436 9.66917 15.422 9.67696 15.3735 9.67277C15.3237 9.66846 15.128 9.63906 14.9644 9.44731C14.7983 9.2525 14.8227 9.07525 14.8193 9.11438L15.8154 9.20215ZM15.0518 8.74023L14.6722 7.81508C14.6508 7.82385 12.8581 8.55911 12.3181 8.79385L12.7168 9.71094L13.1155 10.628C13.6309 10.404 15.3964 9.67974 15.4313 9.66539L15.0518 8.74023ZM12.7168 9.71094L12.3322 8.78787C11.6411 9.07584 10.2964 9.62984 9.12234 10.1127C8.53578 10.354 7.99253 10.5772 7.59592 10.7401C7.39762 10.8215 7.23599 10.8879 7.12393 10.9339C7.06791 10.9569 7.02428 10.9748 6.99466 10.987C6.97985 10.9931 6.96854 10.9977 6.96094 11.0008C6.95714 11.0024 6.95427 11.0036 6.95234 11.0043C6.95138 11.0047 6.95066 11.005 6.95017 11.0052C6.94993 11.0053 6.94975 11.0054 6.94963 11.0055C6.94957 11.0055 6.94953 11.0055 6.9495 11.0055C6.94947 11.0055 6.94945 11.0055 7.3291 11.9307C7.70875 12.8558 7.70877 12.8558 7.7088 12.8558C7.70883 12.8558 7.70888 12.8557 7.70894 12.8557C7.70906 12.8557 7.70924 12.8556 7.70949 12.8555C7.70998 12.8553 7.7107 12.855 7.71167 12.8546C7.7136 12.8538 7.71649 12.8526 7.7203 12.8511C7.72792 12.8479 7.73925 12.8433 7.75407 12.8372C7.78373 12.825 7.82741 12.8071 7.88348 12.7841C7.99562 12.738 8.15735 12.6716 8.35577 12.5901C8.75259 12.4272 9.29616 12.2038 9.88311 11.9624C11.0561 11.4799 12.4053 10.9241 13.1014 10.634L12.7168 9.71094ZM7.3291 11.9307L6.96543 10.9991C6.66815 11.1152 6.37225 11.2714 6.14691 11.5059C5.8897 11.7736 5.72388 12.1523 5.78895 12.5787C5.8441 12.94 6.04397 13.1779 6.14746 13.2844C6.2073 13.346 6.26372 13.393 6.30634 13.4256C6.3282 13.4424 6.34792 13.4565 6.3646 13.4679C6.37298 13.4737 6.38071 13.4788 6.38769 13.4834C6.39118 13.4857 6.3945 13.4878 6.39762 13.4898C6.39919 13.4908 6.40071 13.4918 6.40218 13.4927C6.40291 13.4932 6.40364 13.4936 6.40435 13.4941C6.4047 13.4943 6.40523 13.4946 6.40541 13.4948C6.40593 13.4951 6.40645 13.4954 6.93652 12.6475C7.4666 11.7995 7.46711 11.7998 7.46763 11.8002C7.4678 11.8003 7.46831 11.8006 7.46865 11.8008C7.46933 11.8012 7.47 11.8016 7.47067 11.8021C7.47201 11.8029 7.47333 11.8038 7.47463 11.8046C7.47723 11.8062 7.47976 11.8079 7.48223 11.8095C7.48717 11.8127 7.49189 11.8159 7.49644 11.819C7.50545 11.8252 7.51418 11.8315 7.52272 11.838C7.53869 11.8503 7.55916 11.8673 7.58179 11.8906C7.61083 11.9205 7.7312 12.0485 7.76605 12.2769C7.78522 12.4025 7.77392 12.5344 7.72994 12.6572C7.68769 12.7752 7.62723 12.8519 7.58916 12.8915C7.52626 12.957 7.5163 12.9311 7.69277 12.8622L7.3291 11.9307ZM6.93652 12.6475L6.61231 13.5934C6.62607 13.5982 7.44395 13.8782 8.15215 14.0907L8.43945 13.1328L8.72676 12.175C8.39522 12.0755 8.03243 11.9585 7.74803 11.8647C7.60648 11.8181 7.48568 11.7776 7.39963 11.7486C7.35663 11.7341 7.32236 11.7225 7.29858 11.7144C7.2867 11.7103 7.27744 11.7072 7.27103 11.705C7.26783 11.7039 7.26534 11.7031 7.26359 11.7025C7.26272 11.7022 7.26204 11.7019 7.26155 11.7018C7.2613 11.7017 7.26111 11.7016 7.26097 11.7016C7.2609 11.7015 7.26084 11.7015 7.2608 11.7015C7.26078 11.7015 7.26077 11.7015 7.26075 11.7015C7.26074 11.7015 7.26074 11.7015 7.26074 11.7015L6.93652 12.6475ZM8.43945 13.1328L8.15215 14.0907C8.64967 14.2399 9.07394 14.2428 9.40636 14.1837C9.56983 14.1546 9.70484 14.1117 9.80994 14.0691C9.86239 14.0478 9.90728 14.0267 9.9445 14.0074C9.96312 13.9978 9.97983 13.9887 9.99464 13.9802C10.002 13.976 10.009 13.9719 10.0154 13.9681C10.0186 13.9661 10.0218 13.9643 10.0247 13.9624C10.0262 13.9615 10.0277 13.9606 10.0291 13.9597C10.0299 13.9593 10.0306 13.9588 10.0313 13.9584C10.0316 13.9582 10.0321 13.9579 10.0323 13.9578C10.0328 13.9574 10.0334 13.9571 9.50293 13.1094C8.9725 12.2616 8.97302 12.2613 8.97353 12.261C8.9737 12.2609 8.97421 12.2606 8.97455 12.2604C8.97523 12.2599 8.97591 12.2595 8.97658 12.2591C8.97793 12.2583 8.97926 12.2575 8.98057 12.2566C8.9832 12.255 8.98577 12.2535 8.98827 12.252C8.99329 12.249 8.99805 12.2462 9.00258 12.2436C9.01162 12.2385 9.01971 12.2341 9.02686 12.2304C9.04114 12.223 9.05171 12.2183 9.05865 12.2155C9.0727 12.2098 9.07189 12.2118 9.05619 12.2146C9.03025 12.2192 8.92278 12.2338 8.72676 12.175L8.43945 13.1328ZM9.50293 13.1094L10.0522 13.945C10.076 13.9294 11.691 12.8678 13.3307 11.7361L12.7627 10.9131L12.1947 10.0901C10.574 11.2086 8.97423 12.2602 8.95368 12.2737L9.50293 13.1094ZM12.7627 10.9131L13.325 11.74C13.4521 11.6536 13.5481 11.5947 13.6176 11.556C13.6906 11.5155 13.7175 11.5067 13.7088 11.5097C13.7033 11.5116 13.6769 11.5205 13.6338 11.5276C13.5928 11.5344 13.5135 11.5436 13.4101 11.5307C13.3038 11.5174 13.1548 11.4781 13.0052 11.3738C12.8491 11.2651 12.7399 11.1184 12.6768 10.9656C12.5657 10.697 12.6202 10.4768 12.6307 10.4353C12.6479 10.3667 12.6686 10.3298 12.6687 10.3297C12.6716 10.3242 12.6701 10.3276 12.6638 10.336C12.6576 10.3444 12.6541 10.3477 12.6569 10.3449L13.3643 11.0518L14.0716 11.7586C14.2081 11.6221 14.3366 11.4512 14.431 11.2753C14.478 11.1877 14.5344 11.0659 14.5705 10.9221C14.5998 10.8052 14.6564 10.5193 14.5251 10.2016C14.3531 9.78559 13.9825 9.58664 13.6581 9.54611C13.3997 9.51383 13.1795 9.57671 13.0578 9.61861C12.7958 9.7088 12.5071 9.87757 12.2004 10.0862L12.7627 10.9131ZM13.3643 11.0518L12.6572 10.3447C12.0684 10.9334 11.085 11.8716 10.2608 12.6271L10.9365 13.3643L11.6122 14.1014C12.4528 13.3309 13.4579 12.3724 14.0714 11.7589L13.3643 11.0518ZM10.9365 13.3643L10.278 12.6117C9.9127 12.9314 9.64947 13.4019 9.73784 13.9596C9.81203 14.4279 10.1049 14.7277 10.2619 14.8624L10.9131 14.1035L11.5643 13.3446C11.574 13.353 11.5974 13.3742 11.6242 13.4138C11.6514 13.4538 11.6951 13.5323 11.7132 13.6466C11.7329 13.7712 11.7151 13.8951 11.6705 13.997C11.6301 14.0896 11.5846 14.126 11.5951 14.1168L10.9365 13.3643ZM10.9131 14.1035L10.2671 14.8669C10.6183 15.1641 11.2275 15.5825 11.7159 15.9091C11.969 16.0783 12.2053 16.2332 12.3823 16.3489C12.5894 16.4843 12.6603 16.5311 12.6492 16.5228L13.249 15.7227L13.8488 14.9225C13.7915 14.8795 13.6224 14.7702 13.4768 14.6749C13.3011 14.5601 13.0719 14.4099 12.8277 14.2466C12.3215 13.9081 11.809 13.5516 11.559 13.3401L10.9131 14.1035ZM13.249 15.7227L12.625 16.5041C12.7529 16.6062 13.0139 16.7742 13.3042 16.9081C13.4548 16.9776 13.6427 17.0518 13.8475 17.0995C14.0418 17.1448 14.3257 17.1843 14.6327 17.1122L14.4043 16.1387L14.1759 15.1651C14.2363 15.1509 14.2792 15.1515 14.2956 15.1523C14.3124 15.1531 14.3152 15.1549 14.3015 15.1517C14.2711 15.1446 14.2166 15.1265 14.1421 15.0921C14.0707 15.0592 14.0007 15.0205 13.9433 14.9856C13.9152 14.9685 13.8928 14.9539 13.8775 14.9436C13.8591 14.931 13.8595 14.9305 13.873 14.9412L13.249 15.7227ZM14.4043 16.1387L14.6333 17.1121C15.2752 16.9611 15.5716 16.4637 15.6883 16.1911C15.8095 15.9081 15.8351 15.6552 15.8396 15.6059L14.8438 15.5146L13.8479 15.4234C13.8503 15.3978 13.8518 15.3932 13.8506 15.399C13.849 15.4064 13.8476 15.4089 13.8498 15.4038C13.8511 15.4008 13.8674 15.3616 13.9152 15.3119C13.9702 15.2546 14.0592 15.1926 14.1753 15.1653L14.4043 16.1387ZM14.8438 15.5146C15.8314 15.6713 15.8314 15.6713 15.8314 15.6713C15.8314 15.6712 15.8314 15.6712 15.8314 15.6712C15.8314 15.6711 15.8314 15.6711 15.8315 15.6709C15.8315 15.6707 15.8316 15.6704 15.8316 15.6699C15.8318 15.669 15.832 15.6676 15.8323 15.6658C15.8329 15.6622 15.8337 15.6568 15.8348 15.6496C15.8371 15.6353 15.8405 15.6141 15.8449 15.5865C15.8536 15.5313 15.8664 15.4505 15.8827 15.3481C15.9152 15.1434 15.9614 14.8523 16.0164 14.507C16.1262 13.8165 16.2707 12.9093 16.4093 12.0428L15.4219 11.8848L14.4344 11.7268C14.2956 12.5942 14.1511 13.502 14.0412 14.1929C13.9862 14.5384 13.94 14.8296 13.9074 15.0345C13.8912 15.137 13.8783 15.2178 13.8696 15.2731C13.8652 15.3007 13.8618 15.3219 13.8595 15.3363C13.8584 15.3434 13.8575 15.3489 13.857 15.3525C13.8567 15.3543 13.8565 15.3557 13.8563 15.3566C13.8562 15.3571 13.8562 15.3574 13.8561 15.3577C13.8561 15.3578 13.8561 15.3579 13.8561 15.3579C13.8561 15.358 13.8561 15.358 13.8561 15.358C13.8561 15.358 13.8561 15.358 14.8438 15.5146ZM15.4219 11.8848L16.4107 12.034C16.5875 10.8624 16.786 9.64934 16.8129 9.27344L15.8154 9.20215L14.818 9.13086C14.7986 9.40239 14.6262 10.4563 14.4331 11.7355L15.4219 11.8848Z" fill="#59FFA0" mask="url(#path-1-inside-1_315_67)"/>
</svg>
